<svg width="1000" height="563" viewBox="0 0 1000 563" fill="none" xmlns="http://www.w3.org/2000/svg">
<g clip-path="url(#clip0_1_41)">
<path d="M31.2483 31.2483C31.2483 22.9607 34.5405 15.0126 40.4007 9.1524C46.2608 3.29222 54.209 0 62.4965 0L31.2483 31.2483C39.5358 31.2483 47.4839 27.956 53.3441 22.0959C59.2043 16.2357 62.4965 8.28755 62.4965 0" fill="#272F3B"/>
<path d="M125 0C141.575 0 157.471 6.58443 169.192 18.3048C180.912 30.0252 187.496 45.9214 187.496 62.4965L125 0C125 16.5751 131.584 32.4713 143.305 44.1917C155.025 55.9121 170.921 62.4965 187.496 62.4965" fill="#A8ABB0"/>
<path d="M906.241 62.4965C906.241 54.209 909.533 46.2608 915.394 40.4007C921.254 34.5405 929.202 31.2483 937.49 31.2483L906.241 62.4965C914.529 62.4965 922.477 59.2043 928.337 53.3441C934.197 47.4839 937.49 39.5358 937.49 31.2483" fill="#EDF0F2"/>
<path d="M0 62.4965C16.5751 62.4965 32.4713 69.0809 44.1917 80.8013C55.9121 92.5217 62.4965 108.418 62.4965 124.993L0 62.4965C0 79.0716 6.58443 94.9678 18.3048 106.688C30.0252 118.409 45.9214 124.993 62.4965 124.993" fill="#9FA2A7"/>
<path d="M125 125C125 116.712 128.292 108.764 134.152 102.904C140.013 97.044 147.961 93.7517 156.248 93.7517L125 125C129.104 125 133.167 124.192 136.958 122.621C140.749 121.051 144.194 118.749 147.096 115.848C149.998 112.946 152.299 109.501 153.87 105.71C155.44 101.919 156.248 97.8553 156.248 93.7517" fill="#EFF1F3"/>
<path d="M187.496 93.7448C187.496 85.4572 190.789 77.5091 196.649 71.6489C202.509 65.7887 210.457 62.4965 218.745 62.4965L187.496 93.7448C195.784 93.7448 203.732 90.4525 209.592 84.5924C215.453 78.7322 218.745 70.7841 218.745 62.4965" fill="#444B55"/>
<path d="M218.752 62.4965C227.039 62.4965 234.987 65.7887 240.848 71.6489C246.708 77.5091 250 85.4572 250 93.7448L218.752 62.4965C218.752 70.7841 222.044 78.7322 227.904 84.5924C233.764 90.4525 241.712 93.7448 250 93.7448" fill="#535963"/>
<path d="M187.496 125C187.496 116.712 190.789 108.764 196.649 102.904C202.509 97.044 210.457 93.7517 218.745 93.7517L187.496 125C195.784 125 203.732 121.708 209.592 115.848C215.453 109.987 218.745 102.039 218.745 93.7517" fill="white"/>
<path d="M312.497 124.993C312.497 108.418 319.081 92.5217 330.801 80.8013C342.522 69.0809 358.418 62.4965 374.993 62.4965L312.497 124.993C320.704 124.993 328.83 123.376 336.413 120.236C343.995 117.095 350.885 112.492 356.688 106.688C362.492 100.885 367.095 93.9953 370.236 86.4129C373.377 78.8305 374.993 70.7037 374.993 62.4965" fill="#737880"/>
<path d="M437.496 62.4965C445.784 62.4965 453.732 65.7887 459.592 71.6489C465.453 77.5091 468.745 85.4572 468.745 93.7448L437.496 62.4965C437.496 70.7841 440.789 78.7322 446.649 84.5924C452.509 90.4525 460.457 93.7448 468.745 93.7448" fill="#313844"/>
<path d="M437.496 125C437.496 116.712 440.789 108.764 446.649 102.904C452.509 97.044 460.457 93.7517 468.745 93.7517L437.496 125C441.6 125 445.663 124.192 449.455 122.621C453.246 121.051 456.691 118.749 459.592 115.848C462.494 112.946 464.796 109.501 466.366 105.71C467.937 101.919 468.745 97.8553 468.745 93.7517" fill="#EDF0F2"/>
<path d="M531.248 93.7448C531.248 85.4572 534.54 77.5091 540.401 71.6489C546.261 65.7887 554.209 62.4965 562.497 62.4965L531.248 93.7448C539.536 93.7448 547.484 90.4525 553.344 84.5924C559.204 78.7322 562.497 70.7841 562.497 62.4965" fill="#EEF0F3"/>
<path d="M531.248 125C531.248 116.712 534.54 108.764 540.401 102.904C546.261 97.044 554.209 93.7517 562.497 93.7517L531.248 125C535.352 125 539.415 124.192 543.206 122.621C546.998 121.051 550.442 118.749 553.344 115.848C556.246 112.946 558.548 109.501 560.118 105.71C561.688 101.919 562.497 97.8553 562.497 93.7517" fill="#BDC0C3"/>
<path d="M562.497 124.993C562.497 108.418 569.081 92.5217 580.801 80.8013C592.522 69.0809 608.418 62.4965 624.993 62.4965L562.497 124.993C579.072 124.993 594.968 118.409 606.688 106.688C618.409 94.9678 624.993 79.0716 624.993 62.4965" fill="#EEF0F2"/>
<path d="M999.993 62.4965C1008.28 62.4965 1016.23 65.7887 1022.09 71.6489C1027.95 77.5091 1031.24 85.4572 1031.24 93.7448L999.993 62.4965C999.993 70.7841 1003.29 78.7322 1009.15 84.5924C1015.01 90.4525 1022.95 93.7448 1031.24 93.7448" fill="#EFF1F3"/>
<path d="M312.497 187.496C312.497 170.921 319.081 155.025 330.801 143.305C342.522 131.584 358.418 125 374.993 125L312.497 187.496C320.704 187.496 328.83 185.88 336.413 182.739C343.995 179.599 350.885 174.995 356.688 169.192C362.492 163.388 367.095 156.499 370.236 148.916C373.377 141.334 374.993 133.207 374.993 125" fill="#F9FAFB"/>
<path d="M874.993 125C891.568 125 907.464 131.584 919.185 143.305C930.905 155.025 937.49 170.921 937.49 187.496L874.993 125C874.993 141.575 881.577 157.471 893.298 169.192C905.018 180.912 920.914 187.496 937.49 187.496" fill="#5D636C"/>
<path d="M937.497 125C945.704 125 953.83 126.617 961.413 129.757C968.995 132.898 975.885 137.501 981.688 143.305C987.491 149.108 992.095 155.998 995.236 163.58C998.376 171.163 999.993 179.289 999.993 187.496L937.497 125C937.497 141.575 944.081 157.471 955.801 169.192C967.522 180.912 983.418 187.496 999.993 187.496" fill="#EFF1F3"/>
<path d="M125 187.496C141.575 187.496 157.471 194.081 169.192 205.801C180.912 217.522 187.496 233.418 187.496 249.993L125 187.496C125 204.072 131.584 219.968 143.305 231.688C155.025 243.409 170.921 249.993 187.496 249.993" fill="#EFF1F3"/>
<path d="M187.496 250C187.496 241.712 190.789 233.764 196.649 227.904C202.509 222.044 210.457 218.752 218.745 218.752L187.496 250C195.784 250 203.732 246.708 209.592 240.848C215.453 234.987 218.745 227.039 218.745 218.752" fill="#FDFDFE"/>
<path d="M375 187.496C391.575 187.496 407.471 194.081 419.192 205.801C430.912 217.522 437.497 233.418 437.497 249.993L375 187.496C375 204.072 381.584 219.968 393.305 231.688C405.025 243.409 420.921 249.993 437.497 249.993" fill="#4B515C"/>
<path d="M812.497 249.993C812.497 241.786 814.113 233.659 817.254 226.077C820.395 218.494 824.998 211.605 830.801 205.801C836.605 199.998 843.494 195.395 851.077 192.254C858.659 189.113 866.786 187.496 874.993 187.496L812.497 249.993C829.072 249.993 844.968 243.409 856.688 231.688C868.409 219.968 874.993 204.072 874.993 187.496" fill="#FBFCFC"/>
<path d="M874.993 187.496C883.281 187.496 891.229 190.789 897.089 196.649C902.949 202.509 906.241 210.457 906.241 218.745L874.993 187.496C874.993 195.784 878.285 203.732 884.145 209.592C890.006 215.453 897.954 218.745 906.241 218.745" fill="#ECEFF1"/>
<path d="M906.241 187.496C914.529 187.496 922.477 190.789 928.337 196.649C934.197 202.509 937.49 210.457 937.49 218.745L906.241 187.496C906.241 195.784 909.533 203.732 915.394 209.592C921.254 215.453 929.202 218.745 937.49 218.745" fill="#777C84"/>
<path d="M874.993 250C874.993 241.712 878.285 233.764 884.145 227.904C890.006 222.044 897.954 218.752 906.241 218.752L874.993 250C883.281 250 891.229 246.708 897.089 240.848C902.949 234.987 906.241 227.039 906.241 218.752" fill="#EFF1F3"/>
<path d="M0 250C16.5751 250 32.4713 256.584 44.1917 268.305C55.9121 280.025 62.4965 295.921 62.4965 312.497L0 250C0 266.575 6.58443 282.471 18.3048 294.192C30.0252 305.912 45.9214 312.497 62.4965 312.497" fill="#858990"/>
<path d="M187.496 250C204.072 250 219.968 256.584 231.688 268.305C243.409 280.025 249.993 295.921 249.993 312.497L187.496 250C187.496 266.575 194.081 282.471 205.801 294.192C217.522 305.912 233.418 312.497 249.993 312.497" fill="#EDEFF2"/>
<path d="M312.497 281.248C312.497 272.961 315.789 265.013 321.649 259.152C327.509 253.292 335.457 250 343.745 250L312.497 281.248C316.6 281.248 320.664 280.44 324.455 278.87C328.246 277.299 331.691 274.998 334.592 272.096C337.494 269.194 339.796 265.749 341.366 261.958C342.937 258.167 343.745 254.104 343.745 250" fill="#E4E4E6"/>
<path d="M343.745 250C352.032 250 359.98 253.292 365.841 259.152C371.701 265.013 374.993 272.961 374.993 281.248L343.745 250C343.745 258.288 347.037 266.236 352.897 272.096C358.757 277.956 366.705 281.248 374.993 281.248" fill="#F1F3F5"/>
<path d="M312.497 312.497C312.497 304.209 315.789 296.261 321.649 290.401C327.509 284.54 335.457 281.248 343.745 281.248L312.497 312.497C316.6 312.497 320.664 311.688 324.455 310.118C328.246 308.548 331.691 306.246 334.592 303.344C337.494 300.442 339.796 296.998 341.366 293.206C342.937 289.415 343.745 285.352 343.745 281.248" fill="#FCFCFD"/>
<path d="M343.745 281.248C352.032 281.248 359.98 284.54 365.841 290.401C371.701 296.261 374.993 304.209 374.993 312.497L343.745 281.248C343.745 289.536 347.037 297.484 352.897 303.344C358.757 309.204 366.705 312.497 374.993 312.497" fill="#ECEFF1"/>
<path d="M937.497 250C945.704 250 953.83 251.617 961.413 254.757C968.995 257.898 975.885 262.501 981.688 268.305C987.491 274.108 992.095 280.998 995.236 288.58C998.376 296.163 999.993 304.289 999.993 312.497L937.497 250C937.497 266.575 944.081 282.471 955.801 294.192C967.522 305.912 983.418 312.497 999.993 312.497" fill="#686D76"/>
<path d="M312.497 312.497C316.6 312.497 320.664 313.305 324.455 314.875C328.246 316.446 331.691 318.747 334.592 321.649C337.494 324.551 339.796 327.995 341.366 331.787C342.937 335.578 343.745 339.641 343.745 343.745L312.497 312.497C312.497 316.6 313.305 320.664 314.875 324.455C316.446 328.246 318.747 331.691 321.649 334.592C324.551 337.494 327.995 339.796 331.787 341.366C335.578 342.937 339.641 343.745 343.745 343.745" fill="#FEFEFE"/>
<path d="M656.248 312.497C664.536 312.497 672.484 315.789 678.344 321.649C684.204 327.509 687.497 335.457 687.497 343.745L656.248 312.497C656.248 316.6 657.056 320.664 658.627 324.455C660.197 328.246 662.499 331.691 665.401 334.592C668.302 337.494 671.747 339.796 675.538 341.366C679.329 342.937 683.393 343.745 687.497 343.745" fill="#B8BABE"/>
<path d="M937.497 312.497C945.704 312.497 953.83 314.113 961.413 317.254C968.995 320.395 975.885 324.998 981.688 330.801C987.491 336.605 992.095 343.494 995.236 351.077C998.376 358.659 999.993 366.786 999.993 374.993L937.497 312.497C937.497 320.704 939.113 328.83 942.254 336.413C945.395 343.995 949.998 350.885 955.801 356.688C961.605 362.492 968.494 367.095 976.077 370.236C983.659 373.377 991.786 374.993 999.993 374.993" fill="#ECEEF1"/>
<path d="M125 437.497C125 420.921 131.584 405.025 143.305 393.305C155.025 381.584 170.921 375 187.496 375L125 437.497C141.575 437.497 157.471 430.912 169.192 419.192C180.912 407.471 187.496 391.575 187.496 375" fill="#F2F4F6"/>
<path d="M187.496 437.497C187.496 420.921 194.081 405.025 205.801 393.305C217.522 381.584 233.418 375 249.993 375L187.496 437.497C204.072 437.497 219.968 430.912 231.688 419.192C243.409 407.471 249.993 391.575 249.993 375" fill="#636972"/>
<path d="M250 375C266.575 375 282.471 381.584 294.192 393.305C305.912 405.025 312.497 420.921 312.497 437.497L250 375C250 391.575 256.584 407.471 268.305 419.192C280.025 430.912 295.921 437.497 312.497 437.497" fill="#1F2633"/>
<path d="M437.496 406.248C437.496 397.961 440.789 390.013 446.649 384.152C452.509 378.292 460.457 375 468.745 375L437.496 406.248C445.784 406.248 453.732 402.956 459.592 397.096C465.453 391.236 468.745 383.288 468.745 375" fill="#D7D8DA"/>
<path d="M468.745 437.496C468.745 433.393 469.553 429.33 471.123 425.538C472.694 421.747 474.995 418.302 477.897 415.401C480.799 412.499 484.244 410.197 488.035 408.627C491.826 407.057 495.889 406.248 499.993 406.248L468.745 437.496C472.848 437.496 476.912 436.688 480.703 435.118C484.494 433.547 487.939 431.246 490.841 428.344C493.742 425.442 496.044 421.998 497.614 418.206C499.185 414.415 499.993 410.352 499.993 406.248" fill="#343B47"/>
<path d="M500 437.497C500 420.921 506.584 405.025 518.305 393.305C530.025 381.584 545.921 375 562.497 375L500 437.497C516.575 437.497 532.471 430.912 544.192 419.192C555.912 407.471 562.497 391.575 562.497 375" fill="#F1F3F5"/>
<path d="M937.497 437.497C937.497 420.921 944.081 405.025 955.801 393.305C967.522 381.584 983.418 375 999.993 375L937.497 437.497C945.704 437.497 953.83 435.88 961.413 432.739C968.995 429.598 975.885 424.995 981.688 419.192C987.491 413.388 992.095 406.499 995.236 398.916C998.376 391.334 999.993 383.207 999.993 375" fill="#4E545E"/>
<path d="M999.993 375C1008.28 375 1016.23 378.292 1022.09 384.152C1027.95 390.013 1031.24 397.961 1031.24 406.248L999.993 375C999.993 383.288 1003.29 391.236 1009.15 397.096C1015.01 402.956 1022.95 406.248 1031.24 406.248" fill="#EDF0F2"/>
<path d="M218.752 499.993C218.752 491.705 222.044 483.757 227.904 477.897C233.764 472.037 241.712 468.745 250 468.745L218.752 499.993C222.855 499.993 226.919 499.185 230.71 497.614C234.501 496.044 237.946 493.742 240.848 490.841C243.749 487.939 246.051 484.494 247.621 480.703C249.192 476.912 250 472.848 250 468.745" fill="#8D9197"/>
<path d="M718.745 437.496C727.032 437.496 734.98 440.789 740.841 446.649C746.701 452.509 749.993 460.457 749.993 468.745L718.745 437.496C718.745 445.784 722.037 453.732 727.897 459.592C733.757 465.453 741.705 468.745 749.993 468.745" fill="#DDDEE0"/>
<path d="M749.993 437.496C758.281 437.496 766.229 440.789 772.089 446.649C777.949 452.509 781.241 460.457 781.241 468.745L749.993 437.496C749.993 445.784 753.285 453.732 759.145 459.592C765.006 465.453 772.954 468.745 781.241 468.745" fill="#F6F8F9"/>
<path d="M781.248 468.745C789.536 468.745 797.484 472.037 803.344 477.897C809.204 483.757 812.497 491.705 812.497 499.993L781.248 468.745C781.248 472.848 782.057 476.912 783.627 480.703C785.197 484.494 787.499 487.939 790.401 490.841C793.302 493.742 796.747 496.044 800.538 497.614C804.33 499.185 808.393 499.993 812.497 499.993" fill="#EBEEF1"/>
<path d="M125 500C141.575 500 157.471 506.584 169.192 518.305C180.912 530.025 187.496 545.921 187.496 562.497L125 500C125 516.575 131.584 532.471 143.305 544.192C155.025 555.912 170.921 562.497 187.496 562.497" fill="#CBCCCF"/>
<path d="M187.496 500C204.072 500 219.968 506.584 231.688 518.305C243.409 530.025 249.993 545.921 249.993 562.497L187.496 500C187.496 516.575 194.081 532.471 205.801 544.192C217.522 555.912 233.418 562.497 249.993 562.497" fill="#F1F3F5"/>
<path d="M343.745 562.497C343.745 554.209 347.037 546.261 352.897 540.401C358.757 534.54 366.705 531.248 374.993 531.248L343.745 562.497C352.032 562.497 359.98 559.204 365.841 553.344C371.701 547.484 374.993 539.536 374.993 531.248" fill="#E0E1E3"/>
<path d="M375 562.497C375 545.921 381.584 530.025 393.305 518.305C405.025 506.584 420.921 500 437.497 500L375 562.497C391.575 562.497 407.471 555.912 419.192 544.192C430.912 532.471 437.497 516.575 437.497 500" fill="#242C38"/>
<path d="M749.993 500C766.568 500 782.464 506.584 794.185 518.305C805.905 530.025 812.49 545.921 812.49 562.497L749.993 500C749.993 508.207 751.61 516.334 754.75 523.916C757.891 531.499 762.494 538.388 768.298 544.192C774.101 549.995 780.991 554.598 788.573 557.739C796.156 560.88 804.282 562.497 812.49 562.497" fill="#71767E"/>
</g>
<defs>
<clipPath id="clip0_1_41">
<rect width="1000" height="562.497" fill="white"/>
</clipPath>
</defs>
</svg>
